<?xml version="1.0" standalone="no"?>
<!DOCTYPE svg PUBLIC "-//W3C//DTD SVG 20010904//EN"
 "http://www.w3.org/TR/2001/REC-SVG-20010904/DTD/svg10.dtd">
<svg version="1.0" xmlns="http://www.w3.org/2000/svg"
 width="626.000000pt" height="626.000000pt" viewBox="0 0 626.000000 626.000000"
 preserveAspectRatio="xMidYMid meet">

<g transform="translate(0.000000,626.000000) scale(0.100000,-0.100000)"
fill="#000000" stroke="none">
<path d="M4835 6053 c-11 -2 -30 -6 -42 -9 -26 -5 -196 -171 -189 -183 3 -4
-7 -19 -22 -32 l-27 -24 25 30 c17 21 12 18 -18 -10 -62 -57 -183 -198 -369
-430 -89 -110 -179 -218 -202 -239 l-41 -40 -57 18 c-118 37 -246 113 -347
206 -59 53 -60 54 -27 12 18 -23 42 -49 54 -57 12 -8 16 -15 10 -15 -15 0
-135 129 -129 139 3 4 -5 22 -18 40 l-23 31 -11 -27 c-31 -78 -41 -195 -21
-252 12 -34 -3 -66 -26 -57 -20 7 -145 -22 -233 -55 -75 -28 -86 -30 -115 -18
-33 14 -227 142 -309 205 -27 20 -48 34 -48 31 0 -2 35 -31 78 -63 89 -68 133
-108 157 -147 l17 -27 -42 24 c-98 56 -499 433 -531 500 -5 11 14 -4 43 -35
29 -30 82 -82 118 -115 35 -32 -23 32 -130 143 -156 162 -200 202 -221 203
-48 0 -68 -55 -93 -255 -14 -103 -14 -377 -1 -464 58 -394 156 -726 269 -907
l25 -40 -30 -28 c-40 -38 -38 -63 6 -72 43 -8 50 -18 46 -66 -3 -40 40 -148
58 -148 6 0 15 9 21 20 22 41 30 18 30 -88 0 -60 5 -146 11 -192 l11 -83 -55
-53 c-30 -29 -64 -66 -76 -83 l-22 -31 51 -32 52 -32 -23 -16 c-56 -36 -75
-70 -40 -70 22 0 138 -58 178 -90 16 -12 66 -56 111 -98 218 -201 403 -304
670 -374 64 -16 121 -32 125 -35 5 -3 -22 -22 -60 -42 -73 -40 -87 -64 -38
-69 59 -6 60 -12 9 -42 -28 -16 -75 -57 -105 -92 -29 -35 -86 -99 -125 -143
-98 -111 -152 -181 -179 -235 -13 -25 -43 -71 -67 -101 -25 -30 -63 -81 -85
-114 -42 -62 -107 -185 -98 -185 2 0 16 22 29 49 35 68 159 251 190 280 l25
24 11 -28 c9 -23 5 -38 -21 -96 -23 -49 -37 -69 -50 -69 -21 0 -24 -11 -8 -27
7 -7 -2 -39 -32 -109 -23 -55 -45 -103 -49 -108 -5 -5 -31 0 -60 10 -46 17
-51 21 -47 44 5 23 4 23 -8 6 -13 -18 -15 -18 -58 3 -24 11 -48 21 -53 21 -6
0 -28 -18 -49 -41 l-40 -40 27 -23 c16 -12 28 -27 28 -33 0 -14 -42 -82 -51
-83 -3 0 -20 46 -38 102 -78 246 -336 1029 -359 1088 -14 36 -39 79 -56 95
l-31 30 27 -30 c19 -22 68 -156 188 -520 254 -769 314 -943 484 -1412 36 -100
66 -189 66 -197 0 -7 -6 -16 -14 -19 -9 -4 -22 24 -46 101 -32 104 -137 396
-165 457 -33 75 -190 519 -330 936 -165 491 -194 564 -245 622 l-33 38 -166
-5 c-91 -3 -407 -10 -701 -16 -294 -5 -620 -12 -725 -14 -104 -2 -201 0 -215
4 -18 6 -7 8 40 10 100 2 368 9 770 20 201 6 521 13 713 17 191 3 345 8 342
11 -7 8 -347 4 -795 -8 -217 -6 -485 -12 -595 -15 -520 -13 -508 -12 -527 -36
-10 -12 -18 -29 -18 -39 0 -30 74 -245 239 -695 310 -842 395 -1068 408 -1081
15 -15 17 -34 3 -34 -15 0 -23 -46 -11 -68 14 -27 46 -37 191 -62 69 -12 197
-35 285 -51 88 -16 210 -37 270 -48 287 -51 496 -91 933 -177 215 -42 345 -63
365 -59 48 9 207 43 837 179 952 206 981 211 1410 237 158 10 189 14 213 31
22 16 36 19 65 13 52 -10 82 -8 132 9 39 13 52 13 118 -1 68 -14 78 -13 117 1
24 10 54 14 68 11 32 -8 95 9 138 38 33 22 34 25 34 89 0 62 3 71 41 125 34
48 47 58 70 58 56 0 111 130 118 280 7 147 -65 296 -195 405 -63 53 -64 53 9
89 23 12 42 25 42 30 0 16 -115 60 -199 75 -46 9 -118 16 -160 16 l-77 0 -62
122 c-78 158 -204 354 -284 443 -35 39 -105 108 -156 155 -78 71 -99 85 -126
85 -31 0 -33 3 -32 29 1 29 -1 30 -109 63 -172 53 -370 103 -480 123 -55 10
-86 18 -69 19 70 2 326 -57 536 -125 59 -19 113 -34 119 -34 7 0 10 12 7 31
-4 28 2 36 66 88 39 32 97 76 128 98 l58 40 -48 7 c-245 32 -655 33 -839 1
-18 -3 -33 -2 -33 3 0 11 158 29 330 38 113 6 315 -4 539 -25 80 -8 87 -7 147
20 34 16 81 31 103 35 56 9 53 27 -15 91 l-56 53 29 11 c15 7 72 26 126 43
l98 32 -23 30 c-13 16 -36 40 -53 54 -16 14 -51 45 -77 69 -44 40 -48 48 -48
90 0 64 -36 290 -60 381 -11 41 -20 82 -20 91 0 10 23 31 50 49 66 42 64 54
-4 46 l-55 -6 20 57 c11 32 23 83 27 113 9 70 9 477 0 550 -34 279 -100 534
-209 808 -111 279 -152 338 -224 325z m59 -114 c126 -149 250 -507 275 -789
24 -276 -33 -621 -137 -825 l-36 -70 -7 45 c-8 53 -25 100 -36 100 -5 0 -16
-21 -25 -47 -10 -27 -27 -63 -38 -82 l-21 -33 -44 46 c-25 25 -53 63 -64 84
-11 21 -31 44 -46 50 -15 7 -25 18 -22 25 26 59 67 171 67 182 0 28 -90 34
-178 11 -63 -16 -66 -7 -27 63 14 24 24 46 22 48 -6 5 -90 -58 -110 -84 -37
-46 -40 -31 -34 165 11 379 122 769 289 1015 91 134 125 153 172 96z m-412
-236 c-114 -139 -230 -302 -388 -541 -75 -114 -139 -209 -140 -211 -12 -13 -9
13 8 86 l20 81 222 275 c236 293 346 421 353 413 3 -3 -31 -49 -75 -103z
m-2376 -118 c-3 -8 5 -59 18 -112 13 -54 34 -143 46 -198 44 -197 111 -382
251 -694 44 -97 79 -185 79 -196 0 -22 -32 -218 -36 -224 -7 -9 -33 22 -27 32
3 5 1 7 -4 4 -31 -19 -182 204 -237 350 -8 21 -26 68 -39 104 -33 85 -72 320
-87 521 -12 166 10 428 37 428 3 0 3 -7 -1 -15z m1202 -484 c13 -7 8 -11 -23
-15 -22 -4 -107 -22 -188 -42 -82 -20 -151 -33 -154 -30 -3 3 5 9 18 14 13 5
67 25 119 44 52 20 102 38 110 42 19 7 97 -1 118 -13z m-808 -1281 c6 -85 18
-195 27 -243 11 -65 12 -92 4 -100 -14 -14 -21 -6 -32 40 -15 65 -30 422 -22
528 l8 100 2 -85 c1 -47 7 -155 13 -240z m215 -335 c55 -30 102 -56 105 -57 3
-2 18 -29 34 -61 47 -98 140 -145 219 -112 40 16 53 30 37 40 -5 3 -10 10 -10
16 0 14 28 11 33 -3 2 -7 10 6 16 30 13 46 31 48 31 3 0 -41 -47 -127 -88
-161 -32 -27 -44 -30 -102 -30 -51 0 -78 6 -117 25 -99 50 -188 150 -231 261
-20 51 -35 104 -29 104 1 0 48 -25 102 -55z m1735 -61 c-99 -205 -317 -337
-528 -321 -127 10 -210 65 -267 177 -28 55 -29 60 -15 60 5 0 20 -21 33 -47
46 -92 176 -139 263 -95 21 11 49 31 62 45 20 21 21 25 8 30 -28 11 -19 37 13
37 24 0 31 5 36 29 4 21 14 31 33 36 37 9 241 86 327 123 39 17 72 26 73 21 2
-5 -15 -48 -38 -95z m-1962 -1 c-3 -17 -72 -63 -93 -62 -12 0 76 79 88 79 5 0
7 -8 5 -17z m272 -299 c58 -9 107 -17 109 -20 12 -12 -13 -12 -85 1 -44 8
-138 19 -209 25 -71 6 -132 14 -135 17 -8 9 205 -6 320 -23z m603 -16 c78 3
85 -7 35 -54 -64 -58 -62 -58 -107 -29 -40 27 -71 64 -71 85 0 7 12 8 38 3 20
-4 67 -7 105 -5z m-523 -79 c-47 -15 -180 -37 -180 -29 0 9 182 48 195 41 5
-2 -2 -8 -15 -12z m1377 -485 c-9 -9 -28 6 -21 18 4 6 10 6 17 -1 6 -6 8 -13
4 -17z m-1126 -463 c-12 -16 -38 -67 -59 -113 -37 -79 -39 -82 -51 -60 -11 21
-9 29 15 65 35 54 108 146 113 141 2 -1 -6 -16 -18 -33z m2687 -161 c61 -10
177 -48 170 -56 -2 -2 -29 6 -59 17 -30 12 -89 23 -132 26 -43 3 -80 10 -83
14 -7 12 27 11 104 -1z m-3155 -413 c15 -11 10 -14 -43 -28 l-61 -16 27 29
c30 31 51 35 77 15z m461 -17 c-164 -28 -279 -93 -349 -195 -21 -30 -40 -55
-42 -55 -2 0 8 23 23 50 74 135 229 217 414 218 49 0 43 -2 -46 -18z m1261
-179 c31 -5 10 -9 -90 -14 -335 -17 -529 -88 -633 -232 -12 -16 -22 -25 -22
-18 0 7 19 36 43 64 90 110 260 177 505 199 117 10 150 10 197 1z m-1678 -268
c11 -23 31 -44 51 -53 44 -21 30 -31 -37 -25 -46 3 -50 2 -21 -5 l35 -8 -35 1
c-19 1 -34 7 -33 12 1 6 -4 17 -11 25 -11 12 -36 73 -36 86 0 2 15 4 34 4 30
0 37 -5 53 -37z m703 -49 c102 -9 185 -17 186 -18 1 0 4 -23 7 -49 l7 -48 -73
6 c-39 3 -83 8 -97 10 -34 7 -201 25 -275 31 -33 2 -93 9 -133 15 -65 9 -75 9
-86 -6 -11 -15 -14 -15 -37 4 -14 11 -45 21 -70 24 -24 2 -6 4 41 4 83 0 189
15 233 33 33 13 94 12 297 -6z m-620 -89 c6 -8 9 -19 5 -25 -9 -14 -45 6 -45
25 0 19 24 19 40 0z m240 -40 c10 -12 9 -16 -5 -21 -19 -8 -40 9 -31 25 10 15
21 14 36 -4z m1710 -18 c17 -2 20 -5 10 -9 -8 -3 -222 -47 -475 -97 -512 -101
-1016 -203 -1233 -250 -190 -41 -188 -41 -212 15 -33 75 -31 78 63 97 45 9 92
17 105 17 25 0 25 0 12 35 -9 23 -8 26 5 22 8 -4 55 -9 104 -13 98 -7 215 9
243 33 11 10 29 14 50 10 30 -4 306 41 388 63 19 6 103 15 185 20 183 12 288
26 356 46 95 29 229 32 399 11z m-1370 -5 c0 -13 -12 -22 -22 -16 -10 6 -1 24
13 24 5 0 9 -4 9 -8z m-532 -30 c2 -7 -3 -12 -12 -12 -9 0 -16 7 -16 16 0 17
22 14 28 -4z m238 -20 c-9 -9 -37 8 -31 18 5 8 11 7 21 -1 8 -6 12 -14 10 -17z
m524 -2 c0 -5 -10 -10 -22 -10 -13 0 -47 -3 -75 -6 -35 -5 -53 -3 -53 4 0 12
32 18 103 21 26 0 47 -3 47 -9z m-733 -73 c-5 -15 -19 -18 -36 -8 -8 5 -11 16
-8 25 5 14 11 15 27 6 12 -6 20 -16 17 -23z"/>
<path d="M2390 4256 c0 -4 9 -16 20 -28 11 -12 20 -17 20 -11 0 5 -9 18 -20
28 -11 10 -20 15 -20 11z"/>
<path d="M3418 943 c6 -2 18 -2 25 0 6 3 1 5 -13 5 -14 0 -19 -2 -12 -5z"/>
</g>
</svg>
