<?xml version="1.0" standalone="no"?>
<!DOCTYPE svg PUBLIC "-//W3C//DTD SVG 20010904//EN"
 "http://www.w3.org/TR/2001/REC-SVG-20010904/DTD/svg10.dtd">
<svg version="1.0" xmlns="http://www.w3.org/2000/svg"
 width="800.000000pt" height="311.000000pt" viewBox="0 0 800.000000 311.000000"
 preserveAspectRatio="xMidYMid meet">

<g transform="translate(0.000000,311.000000) scale(0.100000,-0.100000)"
fill="#000000" stroke="none">
<path d="M7274 2436 c12 -29 12 -54 1 -178 -8 -78 -18 -199 -23 -268 -10 -153
-13 -687 -4 -792 9 -93 0 -131 -36 -157 -16 -11 -97 -35 -192 -57 -240 -54
-225 -55 -302 4 l-66 50 -6 -29 c-8 -44 -50 -62 -234 -108 -222 -55 -226 -54
-307 14 l-65 55 -144 -35 c-79 -19 -156 -35 -171 -35 -29 0 -74 29 -132 83
l-32 30 -68 -31 c-135 -61 -338 -102 -508 -102 -183 0 -272 36 -399 164 l-82
82 -73 -68 c-129 -121 -306 -190 -487 -190 -150 0 -281 49 -402 151 -40 33
-74 61 -76 61 -2 0 -17 -13 -34 -28 -25 -23 -58 -35 -193 -67 -240 -56 -233
-56 -311 3 l-66 50 -6 -28 c-8 -45 -50 -64 -231 -108 -216 -53 -228 -53 -292
-1 -28 22 -56 51 -63 65 -16 29 -49 31 -189 9 -154 -25 -197 -33 -360 -66
-105 -21 -168 -29 -197 -25 l-44 6 30 -49 c37 -60 109 -127 157 -148 52 -21
134 -18 264 11 231 51 341 68 413 64 62 -3 80 -9 141 -46 42 -25 89 -44 116
-48 57 -8 205 24 334 71 119 44 145 48 195 35 78 -21 158 -13 321 30 187 51
228 50 309 -2 150 -97 241 -122 405 -115 133 5 232 34 336 99 39 23 87 53 107
65 21 13 53 23 72 23 36 0 52 -9 181 -99 79 -56 134 -77 236 -91 110 -15 281
2 453 46 74 18 148 34 163 34 16 0 63 -14 104 -30 83 -33 145 -38 248 -21 103
18 134 14 224 -29 89 -43 126 -48 222 -30 30 6 70 13 89 16 19 3 73 18 120 32
89 28 132 30 281 17 64 -6 105 -4 167 9 149 30 211 54 259 100 59 55 73 106
65 241 -15 259 -5 628 24 917 17 178 11 242 -30 313 -30 51 -95 109 -158 141
-64 32 -71 31 -54 -10z"/>
<path d="M3494 2395 c0 -40 6 -43 30 -17 15 18 15 20 -2 35 -26 23 -28 22 -28
-18z"/>
<path d="M3330 2393 c0 -12 -4 -65 -9 -119 -16 -173 -21 -260 -12 -239 10 26
35 364 27 372 -3 4 -6 -3 -6 -14z"/>
<path d="M7121 2400 c-21 -186 -33 -398 -38 -660 -5 -315 2 -559 16 -529 4 8
3 97 -3 199 -10 191 3 635 25 847 6 56 9 115 6 130 -2 15 -5 21 -6 13z"/>
<path d="M2752 2380 c0 -14 4 -36 8 -50 6 -20 8 -21 8 -5 0 11 -4 34 -8 50 -7
27 -8 27 -8 5z"/>
<path d="M6542 2380 c0 -28 35 -174 36 -150 1 8 -7 51 -18 95 -10 44 -18 69
-18 55z"/>
<path d="M2222 2365 c0 -16 3 -50 7 -75 8 -42 9 -43 9 -10 1 19 -3 53 -7 75
-8 35 -9 36 -9 10z"/>
<path d="M5543 2315 c0 -33 2 -45 4 -27 2 18 2 45 0 60 -2 15 -4 0 -4 -33z"/>
<path d="M5051 2328 c0 -4 -17 -85 -36 -180 -47 -237 -105 -584 -105 -635 0
-75 17 -46 23 40 7 90 51 358 98 595 17 84 28 160 26 170 -3 9 -5 14 -6 10z"/>
<path d="M2771 2292 c-1 -20 62 -267 66 -256 2 5 -12 68 -31 139 -19 72 -35
124 -35 117z"/>
<path d="M6026 2218 c-33 -376 -35 -1048 -4 -1048 6 0 7 27 2 68 -11 98 -8
637 5 856 11 189 9 262 -3 124z"/>
<path d="M4316 2119 c-47 -51 -84 -94 -81 -97 7 -7 81 65 137 131 71 84 34 61
-56 -34z"/>
<path d="M6581 2194 c0 -11 3 -14 6 -6 3 7 2 16 -1 19 -3 4 -6 -2 -5 -13z"/>
<path d="M6591 2165 c0 -5 8 -41 19 -80 11 -38 18 -54 15 -34 -6 39 -33 130
-34 114z"/>
<path d="M882 2128 l-44 -10 7 -101 c4 -56 8 -104 11 -106 2 -2 4 37 4 87 0
83 2 92 22 106 14 10 44 16 76 16 33 0 51 4 47 10 -8 12 -65 11 -123 -2z"/>
<path d="M2165 2094 c-16 -2 -79 -9 -140 -15 -177 -17 -175 -16 -174 -53 0
-29 1 -30 11 -9 15 31 23 33 205 51 89 8 160 19 157 24 -3 4 -11 7 -17 7 -7
-1 -25 -4 -42 -5z"/>
<path d="M3983 2086 c-126 -40 -253 -208 -283 -376 -13 -73 -6 -169 16 -212
20 -39 24 -35 8 10 -18 50 -17 165 2 237 32 123 137 265 229 310 41 20 120 26
165 13 14 -4 7 1 -15 12 -46 23 -65 23 -122 6z"/>
<path d="M4466 2001 c-19 -21 -14 -41 10 -41 9 0 14 11 14 30 0 35 -1 36 -24
11z"/>
<path d="M2156 1829 c4 -37 10 -82 15 -100 5 -23 6 -11 3 39 -4 41 -10 86 -15
100 -5 18 -6 4 -3 -39z"/>
<path d="M1328 1702 c-45 -61 -139 -132 -232 -177 -72 -34 -175 -65 -216 -65
l-23 0 6 -176 c5 -160 9 -195 21 -183 3 2 0 68 -5 146 -6 86 -6 151 0 165 7
20 23 28 78 42 149 39 323 148 394 247 36 51 16 52 -23 1z"/>
<path d="M5107 1710 c-4 -19 -9 -60 -12 -90 -3 -30 -8 -62 -10 -70 -3 -8 4 -5
15 8 26 31 34 81 23 139 l-9 48 -7 -35z"/>
<path d="M2085 1660 c-239 -39 -255 -43 -255 -61 0 -24 19 -34 26 -15 7 20 14
21 164 46 69 12 129 25 135 31 10 10 2 10 -70 -1z"/>
<path d="M3968 1518 c-21 -6 -38 -14 -38 -19 0 -12 60 1 85 18 23 15 8 16 -47
1z"/>
<path d="M3296 1360 c3 -80 9 -149 14 -154 10 -10 1 215 -11 264 -5 22 -7 -19
-3 -110z"/>
<path d="M1335 1450 c-13 -21 -119 -75 -214 -110 l-96 -36 3 -161 c3 -106 0
-168 -7 -182 -16 -30 -57 -47 -126 -55 -33 -3 -120 -12 -194 -20 -117 -13
-139 -13 -169 0 -48 20 -52 18 -42 -15 21 -75 106 -163 194 -202 71 -31 128
-33 286 -10 173 26 221 48 258 122 19 38 23 65 25 152 2 120 15 148 79 180 34
17 36 20 42 87 10 97 -3 260 -20 260 -7 0 -16 -5 -19 -10z"/>
<path d="M6478 1327 c2 -62 8 -137 12 -167 7 -38 8 -7 4 105 -2 88 -8 163 -12
167 -4 4 -6 -43 -4 -105z"/>
<path d="M2691 1335 c1 -93 14 -238 18 -205 6 45 -1 276 -9 289 -6 11 -9 -19
-9 -84z"/>
<path d="M4402 1316 c-56 -86 -160 -179 -246 -221 -161 -79 -365 -85 -509 -14
-42 20 -42 20 -17 0 86 -70 305 -88 453 -38 146 50 283 162 351 286 39 72 18
63 -32 -13z"/>
<path d="M5508 1220 c-79 -81 -211 -132 -433 -165 -167 -25 -282 -17 -367 26
-21 11 -38 17 -38 14 0 -12 100 -54 155 -65 137 -28 446 24 601 103 48 24 134
106 134 127 0 14 0 14 -52 -40z"/>
<path d="M3265 1175 c-5 -2 -72 -18 -147 -35 -76 -18 -138 -36 -138 -41 0 -5
4 -9 8 -9 23 0 298 72 306 80 10 10 -7 12 -29 5z"/>
<path d="M6915 1144 c-125 -31 -187 -54 -144 -54 28 0 304 71 313 80 16 16
-19 10 -169 -26z"/>
<path d="M2115 1153 c-195 -24 -583 -97 -599 -113 -14 -14 -11 -14 183 25 193
37 436 75 491 75 19 0 42 5 50 10 15 10 -57 12 -125 3z"/>
<path d="M5825 1101 c-86 -22 -130 -37 -113 -39 31 -4 242 44 278 64 l25 13
-25 -1 c-14 -1 -88 -17 -165 -37z"/>
<path d="M2533 1062 c-133 -35 -180 -52 -139 -52 15 0 126 26 259 61 20 5 37
14 37 19 0 13 9 14 -157 -28z"/>
<path d="M6325 1064 c-77 -19 -144 -39 -149 -44 -16 -16 18 -12 127 16 169 42
177 44 177 54 0 12 11 14 -155 -26z"/>
<path d="M662 1055 c-118 -13 -157 -25 -79 -25 67 0 249 21 267 31 20 11 -48
9 -188 -6z"/>
<path d="M7408 173 c16 -3 22 -9 18 -20 -3 -8 -6 -35 -6 -59 0 -32 -4 -44 -15
-44 -11 0 -15 12 -15 44 0 25 -4 47 -9 50 -11 7 -2 -82 11 -106 8 -16 30 -18
226 -19 119 0 245 -1 279 -1 77 -1 93 11 93 68 0 33 -5 46 -22 58 -31 22 -45
20 -24 -3 11 -12 16 -31 14 -53 -2 -27 -7 -34 -30 -36 -21 -3 -27 2 -31 20
l-4 23 -2 -22 c-2 -41 -21 -24 -22 20 l-2 42 -6 -40 c-5 -35 -10 -40 -35 -43
-28 -4 -28 -3 -25 47 2 28 1 51 -3 51 -5 0 -8 -22 -8 -50 0 -46 -2 -50 -24
-50 -24 0 -36 16 -36 51 0 10 -5 19 -11 19 -7 0 -10 -14 -7 -35 3 -23 0 -35
-8 -35 -15 0 -24 83 -10 92 6 4 20 5 31 2 11 -2 2 4 -19 16 -22 11 -49 20 -60
19 -20 0 -20 -1 2 -9 12 -5 22 -16 22 -25 0 -18 -16 -20 -23 -2 -3 7 -6 5 -6
-5 -1 -10 6 -18 14 -18 10 0 15 -11 15 -35 0 -30 -3 -35 -24 -35 -29 0 -43 17
-27 33 9 9 14 8 21 -3 8 -12 10 -12 10 -1 0 16 -29 40 -49 41 -9 0 -12 -10 -9
-35 3 -24 0 -35 -9 -35 -8 0 -13 13 -13 34 0 19 -4 37 -9 41 -15 9 -23 -32
-11 -55 8 -16 8 -20 -4 -20 -8 0 -17 6 -19 13 -4 10 -6 10 -6 0 -1 -8 -16 -13
-41 -13 l-40 0 0 44 c0 32 5 46 17 50 14 6 14 8 -3 21 -10 8 -30 14 -44 13
-24 -1 -24 -1 -2 -5z"/>
<path d="M7600 149 c0 -5 5 -7 10 -4 6 3 10 8 10 11 0 2 -4 4 -10 4 -5 0 -10
-5 -10 -11z"/>
<path d="M7838 148 c5 -5 16 -8 23 -6 8 3 3 7 -10 11 -17 4 -21 3 -13 -5z"/>
<path d="M7516 135 c4 -8 7 -15 9 -15 2 0 5 7 9 15 3 9 0 15 -9 15 -9 0 -12
-6 -9 -15z"/>
<path d="M7758 110 c2 -22 5 -40 7 -40 2 0 5 18 7 40 2 24 -1 40 -7 40 -6 0
-9 -16 -7 -40z"/>
<path d="M7888 123 c5 -23 7 -25 10 -8 2 11 9 23 16 27 6 5 3 8 -10 8 -18 0
-20 -4 -16 -27z"/>
<path d="M7476 122 c-14 -3 -16 -6 -6 -12 11 -7 11 -12 2 -23 -10 -12 -9 -16
7 -20 14 -3 22 1 26 14 8 25 -6 46 -29 41z"/>
<path d="M7820 95 c0 -14 5 -25 10 -25 6 0 10 11 10 25 0 14 -4 25 -10 25 -5
0 -10 -11 -10 -25z"/>
<path d="M7920 95 c0 -14 5 -25 10 -25 6 0 10 11 10 25 0 14 -4 25 -10 25 -5
0 -10 -11 -10 -25z"/>
</g>
</svg>
